<svg width="56" height="57" viewBox="0 0 56 57" fill="none" xmlns="http://www.w3.org/2000/svg">
<g id="gg:feed">
<g id="Group">
<path id="Vector" d="M29.288 19.485C28.6692 19.485 28.0757 19.7308 27.6381 20.1684C27.2005 20.606 26.9547 21.1995 26.9547 21.8183C26.9547 22.4372 27.2005 23.0306 27.6381 23.4682C28.0757 23.9058 28.6692 24.1516 29.288 24.1516H38.6214C39.2402 24.1516 39.8337 23.9058 40.2713 23.4682C40.7089 23.0306 40.9547 22.4372 40.9547 21.8183C40.9547 21.1995 40.7089 20.606 40.2713 20.1684C39.8337 19.7308 39.2402 19.485 38.6214 19.485H29.288Z" fill="#1D4ED8" fill-opacity="0.13"/>
<path id="Vector_2" d="M29.288 40.485C28.6692 40.485 28.0757 40.7308 27.6381 41.1684C27.2005 41.606 26.9547 42.1995 26.9547 42.8183C26.9547 43.4372 27.2005 44.0307 27.6381 44.4682C28.0757 44.9058 28.6692 45.1517 29.288 45.1517H38.6214C39.2402 45.1517 39.8337 44.9058 40.2713 44.4682C40.7089 44.0307 40.9547 43.4372 40.9547 42.8183C40.9547 42.1995 40.7089 41.606 40.2713 41.1684C39.8337 40.7308 39.2402 40.485 38.6214 40.485H29.288Z" fill="#1D4ED8" fill-opacity="0.13"/>
<path id="Vector_3" d="M29.288 12.485C28.6692 12.485 28.0757 12.7308 27.6381 13.1684C27.2005 13.606 26.9547 14.1995 26.9547 14.8183C26.9547 15.4372 27.2005 16.0306 27.6381 16.4682C28.0757 16.9058 28.6692 17.1517 29.288 17.1517H47.9547C48.5735 17.1517 49.167 16.9058 49.6046 16.4682C50.0422 16.0306 50.288 15.4372 50.288 14.8183C50.288 14.1995 50.0422 13.606 49.6046 13.1684C49.167 12.7308 48.5735 12.485 47.9547 12.485H29.288Z" fill="#1D4ED8" fill-opacity="0.5"/>
<path id="Vector_4" d="M29.288 33.485C28.6692 33.485 28.0757 33.7308 27.6381 34.1684C27.2005 34.606 26.9547 35.1995 26.9547 35.8183C26.9547 36.4372 27.2005 37.0307 27.6381 37.4682C28.0757 37.9058 28.6692 38.1517 29.288 38.1517H47.9547C48.5735 38.1517 49.167 37.9058 49.6046 37.4682C50.0422 37.0307 50.288 36.4372 50.288 35.8183C50.288 35.1995 50.0422 34.606 49.6046 34.1684C49.167 33.7308 48.5735 33.485 47.9547 33.485H29.288Z" fill="#1D4ED8" fill-opacity="0.5"/>
<path id="Vector_5" d="M8.04534 10.1562C7.4265 10.1562 6.83301 10.4021 6.39542 10.8397C5.95784 11.2773 5.71201 11.8707 5.71201 12.4896V24.1562C5.71201 24.7751 5.95784 25.3686 6.39542 25.8062C6.83301 26.2437 7.4265 26.4896 8.04534 26.4896H19.712C20.3308 26.4896 20.9243 26.2437 21.3619 25.8062C21.7995 25.3686 22.0453 24.7751 22.0453 24.1562V12.4896C22.0453 11.8707 21.7995 11.2773 21.3619 10.8397C20.9243 10.4021 20.3308 10.1562 19.712 10.1562H8.04534Z" fill="#1D4ED8"/>
<path id="Vector_6" d="M8.04534 31.1469C7.4265 31.1469 6.83301 31.3927 6.39542 31.8303C5.95784 32.2679 5.71201 32.8613 5.71201 33.4802V45.1468C5.71201 45.7657 5.95784 46.3592 6.39542 46.7968C6.83301 47.2344 7.4265 47.4802 8.04534 47.4802H19.712C20.3308 47.4802 20.9243 47.2344 21.3619 46.7968C21.7995 46.3592 22.0453 45.7657 22.0453 45.1468V33.4802C22.0453 32.8613 21.7995 32.2679 21.3619 31.8303C20.9243 31.3927 20.3308 31.1469 19.712 31.1469H8.04534Z" fill="#1D4ED8"/>
</g>
</g>
</svg>
