<svg width="50" height="51" viewBox="0 0 50 51" fill="none" xmlns="http://www.w3.org/2000/svg">
<g id="gg:instagram">
<g id="Group">
<path id="Vector" fill-rule="evenodd" clip-rule="evenodd" d="M25 15.4017C22.2373 15.4017 19.5878 16.4991 17.6343 18.4526C15.6808 20.4061 14.5833 23.0557 14.5833 25.8183C14.5833 28.581 15.6808 31.2305 17.6343 33.184C19.5878 35.1375 22.2373 36.235 25 36.235C27.7627 36.235 30.4122 35.1375 32.3657 33.184C34.3192 31.2305 35.4167 28.581 35.4167 25.8183C35.4167 23.0557 34.3192 20.4061 32.3657 18.4526C30.4122 16.4991 27.7627 15.4017 25 15.4017ZM18.75 25.8183C18.75 27.4759 19.4085 29.0657 20.5806 30.2378C21.7527 31.4099 23.3424 32.0683 25 32.0683C26.6576 32.0683 28.2473 31.4099 29.4194 30.2378C30.5915 29.0657 31.25 27.4759 31.25 25.8183C31.25 24.1607 30.5915 22.571 29.4194 21.3989C28.2473 20.2268 26.6576 19.5683 25 19.5683C23.3424 19.5683 21.7527 20.2268 20.5806 21.3989C19.4085 22.571 18.75 24.1607 18.75 25.8183Z" fill="#1D4ED8"/>
<path id="Vector_2" d="M37.5 11.235C36.9475 11.235 36.4176 11.4545 36.0269 11.8452C35.6362 12.2359 35.4167 12.7658 35.4167 13.3183C35.4167 13.8709 35.6362 14.4008 36.0269 14.7915C36.4176 15.1822 36.9475 15.4017 37.5 15.4017C38.0526 15.4017 38.5825 15.1822 38.9732 14.7915C39.3639 14.4008 39.5834 13.8709 39.5834 13.3183C39.5834 12.7658 39.3639 12.2359 38.9732 11.8452C38.5825 11.4545 38.0526 11.235 37.5 11.235Z" fill="#1D4ED8"/>
<path id="Vector_3" fill-rule="evenodd" clip-rule="evenodd" d="M10.4167 2.90167C8.20654 2.90167 6.08692 3.77965 4.52412 5.34245C2.96132 6.90525 2.08334 9.02487 2.08334 11.235V40.4017C2.08334 42.6118 2.96132 44.7314 4.52412 46.2942C6.08692 47.857 8.20654 48.735 10.4167 48.735H39.5833C41.7935 48.735 43.9131 47.857 45.4759 46.2942C47.0387 44.7314 47.9167 42.6118 47.9167 40.4017V11.235C47.9167 9.02487 47.0387 6.90525 45.4759 5.34245C43.9131 3.77965 41.7935 2.90167 39.5833 2.90167H10.4167ZM39.5833 7.06834H10.4167C9.31161 7.06834 8.2518 7.50733 7.4704 8.28873C6.689 9.07013 6.25001 10.1299 6.25001 11.235V40.4017C6.25001 41.5067 6.689 42.5665 7.4704 43.3479C8.2518 44.1293 9.31161 44.5683 10.4167 44.5683H39.5833C40.6884 44.5683 41.7482 44.1293 42.5296 43.3479C43.311 42.5665 43.75 41.5067 43.75 40.4017V11.235C43.75 10.1299 43.311 9.07013 42.5296 8.28873C41.7482 7.50733 40.6884 7.06834 39.5833 7.06834Z" fill="#1D4ED8"/>
</g>
</g>
</svg>
