<svg width="60" height="61" viewBox="0 0 60 61" fill="none" xmlns="http://www.w3.org/2000/svg">
<g id="gg:monday">
<g id="Group">
<path id="Vector" d="M16.9475 16.1682C18.1018 14.5738 19.8366 13.4971 21.7777 13.1704C23.7188 12.8436 25.7105 13.2931 27.3231 14.4218C28.9358 15.5505 30.0401 17.2679 30.3977 19.2035C30.7554 21.1391 30.3378 23.1378 29.235 24.7682L14.895 45.2482C13.7472 46.8601 12.009 47.9531 10.059 48.289C8.10896 48.625 6.10518 48.1767 4.4842 47.0419C2.86322 45.907 1.7564 44.1776 1.40488 42.2303C1.05336 40.283 1.48562 38.2757 2.6075 36.6457L16.9475 16.1657V16.1682Z" fill="#1D4ED8"/>
<path id="Vector_2" d="M38.17 16.3882C39.3111 14.7588 41.0527 13.6494 43.0118 13.3041C44.9708 12.9588 46.9868 13.4059 48.6162 14.5469C50.2457 15.688 51.3551 17.4297 51.7004 19.3887C52.0457 21.3478 51.5986 23.3638 50.4575 24.9932L36.1175 45.4707C34.9697 47.0826 33.2315 48.1755 31.2815 48.5115C29.3315 48.8475 27.3277 48.3992 25.7067 47.2643C24.0857 46.1295 22.9789 44.4 22.6274 42.4528C22.2759 40.5055 22.7081 38.4982 23.83 36.8682L38.17 16.3882Z" fill="#1D4ED8"/>
<path id="Vector_3" d="M51.25 47.9683C53.2391 47.9683 55.1468 47.1781 56.5533 45.7716C57.9598 44.365 58.75 42.4574 58.75 40.4683C58.75 38.4791 57.9598 36.5715 56.5533 35.165C55.1468 33.7584 53.2391 32.9683 51.25 32.9683C49.2609 32.9683 47.3532 33.7584 45.9467 35.165C44.5402 36.5715 43.75 38.4791 43.75 40.4683C43.75 42.4574 44.5402 44.365 45.9467 45.7716C47.3532 47.1781 49.2609 47.9683 51.25 47.9683Z" fill="#1D4ED8"/>
</g>
</g>
</svg>
