<svg width="61" height="62" viewBox="0 0 61 62" fill="none" xmlns="http://www.w3.org/2000/svg">
<path d="M40.3591 13.2192H9.85913V18.3025H40.3591V13.2192Z" fill="#1D4ED8"/>
<path d="M40.3591 23.3859H9.85913V28.4692H40.3591V23.3859Z" fill="#1D4ED8"/>
<path d="M9.85913 33.5525H30.1925V38.6358H9.85913V33.5525Z" fill="#1D4ED8"/>
<path fill-rule="evenodd" clip-rule="evenodd" d="M34.9658 33.2424C33.69 34.5137 32.9055 36.1954 32.751 37.9897C32.5966 39.7841 33.0822 41.5751 34.1219 43.0457C35.1616 44.5162 36.6883 45.5712 38.4315 46.0239C40.1746 46.4765 42.0217 46.2976 43.6456 45.5187L47.547 49.4176L51.1409 45.8237L47.2395 41.9222C48.0127 40.2991 48.1878 38.4549 47.7336 36.7152C47.2795 34.9756 46.2255 33.4523 44.7575 32.4141C43.2895 31.376 41.502 30.8898 39.7105 31.0414C37.9189 31.1929 36.2385 31.9725 34.9658 33.2424ZM38.5622 40.4328C38.7984 40.6688 39.0787 40.856 39.3872 40.9836C39.6956 41.1113 40.0262 41.1769 40.3601 41.1768C40.6939 41.1767 41.0245 41.1108 41.3329 40.9829C41.6412 40.8551 41.9214 40.6677 42.1574 40.4315C42.3934 40.1954 42.5805 39.9151 42.7082 39.6066C42.8358 39.2981 42.9015 38.9675 42.9014 38.6337C42.9012 38.2998 42.8354 37.9693 42.7075 37.6609C42.5796 37.3525 42.3923 37.0723 42.1561 36.8364C41.6792 36.3598 41.0325 36.0922 40.3583 36.0924C39.684 36.0926 39.0375 36.3607 38.5609 36.8376C38.0844 37.3146 37.8168 37.9613 37.817 38.6355C37.8172 39.3097 38.0853 39.9562 38.5622 40.4328Z" fill="#1D4ED8"/>
</svg>
