<svg width="48" height="49" viewBox="0 0 48 49" fill="none" xmlns="http://www.w3.org/2000/svg">
<g id="gg:pen">
<g id="Group">
<path id="Vector" fill-rule="evenodd" clip-rule="evenodd" d="M42.528 5.40438C42.3422 5.21843 42.1217 5.07091 41.8789 4.97026C41.6361 4.86962 41.3758 4.81781 41.113 4.81781C40.8502 4.81781 40.5899 4.86962 40.3471 4.97026C40.1043 5.07091 39.8837 5.21843 39.698 5.40438L37.954 7.14838C36.8339 6.61389 35.5756 6.43979 34.3524 6.65004C33.1293 6.86028 32.0013 7.44455 31.124 8.32238L9.90999 29.5344L21.224 40.8484L42.44 19.6344C44.288 17.7884 44.678 15.0344 43.612 12.8064L45.358 11.0604C45.7329 10.6853 45.9436 10.1767 45.9436 9.64638C45.9436 9.11605 45.7329 8.60744 45.358 8.23238L42.528 5.40438ZM33.992 22.4244L21.224 35.1924L15.568 29.5344L28.334 16.7684L33.992 22.4264V22.4244ZM37.628 18.7884L39.608 16.8084C39.7939 16.6226 39.9415 16.4021 40.0421 16.1593C40.1428 15.9165 40.1946 15.6562 40.1946 15.3934C40.1946 15.1306 40.1428 14.8703 40.0421 14.6275C39.9415 14.3847 39.7939 14.1641 39.608 13.9784L36.782 11.1504C36.5962 10.9644 36.3757 10.8169 36.1329 10.7163C35.8901 10.6156 35.6298 10.5638 35.367 10.5638C35.1042 10.5638 34.8439 10.6156 34.6011 10.7163C34.3583 10.8169 34.1377 10.9644 33.952 11.1504L31.972 13.1304L37.628 18.7904V18.7884Z" fill="#1D4ED8"/>
<path id="Vector_2" d="M4 46.7183L8.244 31.1624L19.556 42.4764L4 46.7183Z" fill="#1D4ED8"/>
</g>
</g>
</svg>
